<?xml version="1.0" encoding="UTF-8"?>
<svg version="1.1" viewBox="0 0 1024 1024" width="1024" height="1024" xmlns="http://www.w3.org/2000/svg">
<path transform="translate(457,250)" d="m0 0h6l-3 2-16 10 1 1 28-5h25l12 3 9 4 2 1v2h-14l-10 1v2l6 1 27 12 11 8 8 8 6 10 4 10-1 4-5-5-8-7-7-4-2-1 10 21 8 14 4 11 1 5v15l-1 7h-3l-6-16-3-4-2 19-1 27 10-2 16-7 11-8 9-14 4-10 2-9v-26l-5-21-9-24-6-14 1-2 9 10 8 8 10 13 14 18 11 16 12 20 10 18 13 31 10 32 5 22 2 18 1 28-2-3-8-17-7-10-9-10-13-10-17-9-17-6-24-7-22-4 2 6 5 4 20 9 17 8 11 8 8 8v2l-10-2-13-2 2 5 4 2 12 11 8 7 10 11 9 15 5 10 5 15 2 8-1 4-6-9-11-13-4-5-7-5 10 32 5 15 3 15 1 9v23l-4 15-4 7h-1l-2-17-4-12-1 37-4 14-11 18-4 4 3-18v-9l-2-6-4 13-10 16-10 13-9 10-5 6-10 8-10 5-11 3h-6l5-6 11-9 9-11 3-6-16 10-19 10-10 8-10 5-19 6-12 2h-7l3-2 25-9 12-5-23 3-7 1h-31l-19-3-16-5-16-6-15-8-11-8-8-6-10-9-9-10-13-18-9-17-8-22-5-21-4-17-1-15 1-7 2 3 4 17 1-4 3-33 3-12 6-11h3l-1 14 9-14 9-10 7-6 16-8 10-3 14-1 20 4 9 4 5 3-3 1-7-1 11 8 7 6 8 10 6 12 4 16v22l-3 11-5 9-10 11-8 4-8 2h-10l-10-3-8-5-5-6-2-4-1-11 3 4 7 10 6 4 4 1h13l10-3 6-4 6-9 4-11 1-5v-13l-3-12-7-12-8-8-12-7-9-2h-17l-12 4-10 6-6 5-9 13-5 12-3 16v17l4 17 7 16 9 12 11 12 19 13 21 8 12 3 14 2 1 1 1 9 13 1h13l20-3 16-5 16-7 12-8 14-12 9-10 8-14 4-14 3-14v-20l-3-16-8-19-9-16-14-17-9-11-9-9-11-14-8-16-6-18-2-14v-17l4-25 3-15 1-9v-14l-3-10-6-10-7-7-12-6-12-3h-17l-8 3-6-11-2-2h-9l-10 8-14 13h-2l4-18 6-15 9-10 14-10 12-6 10-3z" fill="#23CCD5"/>
<path transform="translate(331,273)" d="m0 0 2 1-9 9-20 25-9 13-11 19-8 16-7 15-9 25-5 18-4 22-2 18-1 20v24l2 25 4 25 6 25 8 24 9 20 10 18 11 17 14 18 13 15 21 21 16 12 15 10 25 13 15 6 18 6 32 8 12 2 11 1h39l26-3 21-5 23-8 17-8 23-14 14-11 10-9 14-8h3l-1 5-10 17-7 10-9 11-11 13-3 8 13-2 10-4 20-10 8-3h6l-4 8-11 10-15 10-22 12-20 9-36 12-21 5-30 4-12 1h-27l-26-2-23-4-26-7-30-11-18-8-18-10-21-14-11-8-10-8-10-9-7-6-7-8-7-7-13-17-7-10-12-19-9-16-9-19-9-23-7-25-5-27-3-24v-38l3-29 5-24 7-24 5-15 11-25 9-17 16-24 9-11 11-13 20-20 11-9 9-7z" fill="#23CCD5"/>
<path transform="translate(508,208)" d="m0 0h20l18 2 22 4 29 8 19 7 23 10 15 8 24 16 13 10 10 9 13 12 7 7 7 8 9 10 11 14 10 15 13 21 9 16 11 25 10 31 5 27 2 18v47l-3 21-6 21-8 20-8 16-13 22-16 24-13 17-10 13-12 14-12 12-16 12-18 11-5 3-2-1 12-12 12-16 7-11 11-17 14-26 8-17 7-19 10-35 5-30 2-27v-20l-2-18-5-28-7-26-9-25-9-20-12-23-13-21-12-17-8-10-13-15-15-16-8-7-10-9-16-12-17-11-21-12-15-7-24-9-29-8-16-3 3-2z" fill="#23CCD5"/>
<path transform="translate(426,215)" d="m0 0h2l-2 5-11 16-7 11-10 23-8 21-6 21-1 16 6-1 12-6 13-11 7-8 6-5 1 2v9l-3 10-6 11-10 13-11 11 14-3 10-6 7-7h3l-2 9-9 15-5 5-8 7-25 12-10 8-8 9-6 12-4 16-4 3-14 7-2 7-5-1-8-6-6-7-4-11v-7l9-6 5-5 3-8 1-14-2-12v-17l5-16 6-18 6-20 10-28 11-21 9-11 2-3h2v-2l4-3h2l-1 5-7 11-7 16-10 29-1 13h2l2-6 14-25 13-19 10-13 9-11 12-12zm-68 135-9 7-5 8v8l2 5 4-2 8-11 1-4v-11zm-27 67-4 4 1 6h2l4-7v-3z" fill="#23CCD5"/>
<path transform="translate(549,237)" d="m0 0 6 2 23 13 27 18 14 12 11 9 26 26 9 11 14 18 11 17 15 27 11 23 7 19 8 26 5 21 3 18 1 10v34l-3 28-2 4-5-18-8-15-2-2-5 1-8 6-8 13-10 20-2 1 3-21 4-37 1-12v-18l-3-29-6-29-10-33-8-20-12-25-12-20-8-12-10-14-13-16-12-12-12-9-11-6h-3l-1 3-4-6-1-3h-2l-7-8-10-12z" fill="#23CCD5"/>
<path transform="translate(494,460)" d="m0 0h2l9 17-1 3-11 9-7 7-5-1-7-9-6-13v-2l10-2 10-4z" fill="#23CCD5"/>
<path transform="translate(485,432)" d="m0 0h2l3 19-11 5-12 3-5-1-2-3-3-16v-3l15-1z" fill="#23CCD5"/>
<path transform="translate(513,484)" d="m0 0 3 3 6 9 4 7-5 5-9 13-2 3-4-2-11-10 1-7 10-13z" fill="#23CCD5"/>
<path transform="translate(541,609)" d="m0 0 9 2 6 1-1 7-7 12-9 9-8 4-9-6 2-4 7-9z" fill="#23CCD5"/>
<path transform="translate(460,401)" d="m0 0 24 2v19l-7 2h-21l1-10z" fill="#23CCD5"/>
<path transform="translate(534,508)" d="m0 0 4 4 7 12-1 5-14 16-7-6-5-4-1-3 8-14z" fill="#23CCD5"/>
<path transform="translate(552,536)" d="m0 0h2l6 14 1 5v7l-9 6-6 3-4-1-4-10-2-4 4-6 8-8z" fill="#23CCD5"/>
<path transform="translate(470,369)" d="m0 0 19 4-1 5-4 15-17-2-4-2z" fill="#23CCD5"/>
<path transform="translate(562,572)" d="m0 0h2v16l-2 7-5 4h-10l-2-1v-16l14-7z" fill="#23CCD5"/>
<path transform="translate(513,644)" d="m0 0 4 2 4 6-5 4-22 10-5-2-4-4 14-8z" fill="#23CCD5"/>
<path transform="translate(477,345)" d="m0 0 17 1-1 10-2 10-17-6z" fill="#23CCD5"/>
<path transform="translate(481,317)" d="m0 0 4 1 4 5 3 8v6l-11-1-3-1-2-6v-7z" fill="#23CCD5"/>
<path transform="translate(665,739)" d="m0 0" fill="#23CCD5"/>
<path transform="translate(625,472)" d="m0 0" fill="#23CCD5"/>
<path transform="translate(333,272)" d="m0 0" fill="#23CCD5"/>
</svg>
